<svg xmlns="http://www.w3.org/2000/svg" width="500" height="500" viewBox="0 0 500 500">
<g>
<path d="M 0.00 0.00 L 500.00 0.00 L 500.00 500.00 L 0.00 500.00 ZM 208.50 443.30 C221.51,443.89 245.05,442.04 257.71,439.42 C266.52,437.61 281.69,432.68 287.50,429.76 C314.00,416.43 331.38,394.59 338.22,366.00 C340.18,357.82 340.50,353.87 340.48,337.50 C340.46,316.96 339.91,313.70 333.96,298.24 C329.14,285.71 320.21,272.23 309.25,260.91 L 302.86 254.31 L 321.18 253.71 C348.82,252.81 372.52,247.84 389.01,239.50 C409.62,229.08 423.11,212.73 428.63,191.50 C431.34,181.09 431.10,157.36 428.17,146.66 C424.52,133.27 420.58,126.53 410.53,116.45 C402.91,108.80 400.02,106.67 392.00,102.73 C376.71,95.23 355.80,90.26 330.94,88.20 L 322.50 87.50 L 321.95 53.00 L 280.07 53.00 L 279.79 62.55 L 279.50 72.10 L 269.50 66.97 C242.19,52.97 223.60,48.07 197.63,48.02 C161.11,47.95 121.79,64.33 102.58,87.63 C87.35,106.08 80.03,128.35 81.30,152.30 C82.01,165.67 84.47,175.14 90.45,187.50 C103.19,213.85 124.81,234.87 175.75,270.48 L 190.00 280.43 L 190.00 393.89 L 184.82 392.35 C153.29,382.99 133.10,356.42 125.49,314.26 C124.62,309.44 123.40,294.81 122.77,281.75 L 121.64 258.00 L 79.99 258.00 L 80.24 347.75 L 80.50 437.50 L 101.21 437.77 L 121.92 438.04 L 122.21 429.77 L 122.50 421.50 L 127.50 421.62 C131.19,421.71 137.47,423.71 151.50,429.29 C176.24,439.13 189.69,442.43 208.50,443.30 ZM 245.46 423.49 C232.62,425.42 203.57,425.34 192.00,423.34 C182.57,421.71 166.96,416.54 151.00,409.77 C137.34,403.97 131.38,402.59 122.95,403.30 C111.42,404.27 106.50,408.02 104.53,417.31 C104.03,419.67 103.49,420.08 101.22,419.81 L 98.50 419.50 L 98.24 347.69 L 97.99 275.87 L 101.24 276.19 L 104.50 276.50 L 105.11 290.50 C106.98,333.20 119.24,365.94 141.42,387.38 C159.56,404.93 181.74,413.32 210.00,413.34 C225.44,413.35 236.91,411.09 246.79,406.11 C263.76,397.54 272.45,384.85 274.94,365.01 C277.87,341.64 266.95,319.18 242.15,297.58 C233.01,289.61 215.68,276.33 202.82,267.43 C157.62,236.16 146.64,227.71 131.44,212.54 C108.24,189.38 98.97,170.68 99.02,147.09 C99.05,127.13 105.50,110.74 118.76,96.85 C139.12,75.54 168.38,64.99 203.50,66.29 C225.50,67.10 234.66,69.69 259.71,82.15 C271.53,88.03 274.99,89.31 280.22,89.73 C291.57,90.64 296.65,86.82 297.70,76.58 C298.25,71.24 298.40,71.00 301.14,71.00 L 304.00 71.00 L 304.00 184.13 L 301.25 183.82 C298.54,183.50 298.49,183.36 297.76,174.50 C295.82,151.07 289.53,131.53 278.82,115.74 C262.67,91.92 238.88,78.63 210.00,77.29 C189.10,76.32 175.30,80.13 164.94,89.72 C158.09,96.05 154.63,102.50 152.41,113.02 C150.66,121.34 151.14,133.21 153.63,142.95 C155.57,150.52 161.84,163.34 166.86,170.00 C178.63,185.60 195.50,199.57 232.04,223.96 C278.62,255.06 294.17,268.03 306.83,286.34 C317.86,302.31 321.93,314.78 322.71,335.00 C324.62,384.85 297.77,415.60 245.46,423.49 ZM 313.89 247.00 C313.01,247.08 312.17,247.15 311.38,247.23 C304.05,247.90 300.51,248.22 297.37,247.26 C294.09,246.25 291.25,243.83 285.00,238.94 C278.67,233.98 266.19,224.97 257.25,218.91 L 241.00 207.90 L 241.00 156.45 C241.00,115.86 241.26,105.00 242.25,105.00 C244.41,105.00 255.47,114.70 260.25,120.78 C273.78,138.01 278.83,154.15 279.87,183.50 L 280.50 201.50 L 301.25 201.77 L 322.00 202.04 L 322.00 149.02 C322.00,115.74 322.36,96.00 322.96,96.00 C325.75,96.00 339.65,101.20 345.17,104.30 C362.20,113.87 372.58,128.86 377.67,151.22 C380.29,162.70 380.04,189.88 377.22,201.23 C370.13,229.73 350.85,243.67 313.89,247.00 ZM 188.26 105.91 C189.82,110.52 190.00,114.63 189.76,140.32 L 189.50 169.50 L 184.26 163.02 C173.82,150.13 168.24,134.22 169.52,121.04 C170.39,112.20 174.08,104.64 179.19,101.26 C184.21,97.93 185.86,98.78 188.26,105.91 ZM 248.00 383.25 C245.41,385.86 242.77,388.00 242.14,388.00 C241.31,388.00 241.00,379.19 241.00,355.42 C241.00,329.96 241.27,322.92 242.24,323.25 C244.24,323.91 252.81,337.04 255.13,343.00 C256.75,347.17 257.27,350.68 257.27,357.50 C257.27,369.23 254.63,376.57 248.00,383.25 Z" fill="rgb(0,0,0)"/>
<path d="M 208.50 443.30 C189.69,442.43 176.24,439.13 151.50,429.29 C137.47,423.71 131.19,421.71 127.50,421.62 L 122.50 421.50 L 122.21 429.77 L 121.92 438.04 L 101.21 437.77 L 80.50 437.50 L 80.24 347.75 L 79.99 258.00 L 100.81 258.00 L 121.64 258.00 L 122.77 281.75 C123.40,294.81 124.62,309.44 125.49,314.26 C133.10,356.42 153.29,382.99 184.82,392.35 L 190.00 393.89 L 190.00 337.16 L 190.00 280.43 L 175.75 270.48 C124.81,234.87 103.19,213.85 90.45,187.50 C84.47,175.14 82.01,165.67 81.30,152.30 C80.03,128.35 87.35,106.08 102.58,87.63 C121.79,64.33 161.11,47.95 197.63,48.02 C223.60,48.07 242.19,52.97 269.50,66.97 L 279.50 72.10 L 279.79 62.55 L 280.07 53.00 L 301.01 53.00 L 321.95 53.00 L 322.23 70.25 L 322.50 87.50 L 330.94 88.20 C355.80,90.26 376.71,95.23 392.00,102.73 C400.02,106.67 402.91,108.80 410.53,116.45 C420.58,126.53 424.52,133.27 428.17,146.66 C431.10,157.36 431.34,181.09 428.63,191.50 C423.11,212.73 409.62,229.08 389.01,239.50 C372.52,247.84 348.82,252.81 321.18,253.71 L 302.86 254.31 L 309.25 260.91 C320.21,272.23 329.14,285.71 333.96,298.24 C339.91,313.70 340.46,316.96 340.48,337.50 C340.50,353.87 340.18,357.82 338.22,366.00 C331.38,394.59 314.00,416.43 287.50,429.76 C281.69,432.68 266.52,437.61 257.71,439.42 C245.05,442.04 221.51,443.89 208.50,443.30 ZM 245.46 423.49 C297.77,415.60 324.62,384.85 322.71,335.00 C321.93,314.78 317.86,302.31 306.83,286.34 C294.17,268.03 278.62,255.06 232.04,223.96 C195.50,199.57 178.63,185.60 166.86,170.00 C161.84,163.34 155.57,150.52 153.63,142.95 C151.14,133.21 150.66,121.34 152.41,113.02 C154.63,102.50 158.09,96.05 164.94,89.72 C175.30,80.13 189.10,76.32 210.00,77.29 C238.88,78.63 262.67,91.92 278.82,115.74 C289.53,131.53 295.82,151.07 297.76,174.50 C298.49,183.36 298.54,183.50 301.25,183.82 L 304.00 184.13 L 304.00 127.57 L 304.00 71.00 L 301.14 71.00 C298.40,71.00 298.25,71.24 297.70,76.58 C296.65,86.82 291.57,90.64 280.22,89.73 C274.99,89.31 271.53,88.03 259.71,82.15 C234.66,69.69 225.50,67.10 203.50,66.29 C168.38,64.99 139.12,75.54 118.76,96.85 C105.50,110.74 99.05,127.13 99.02,147.09 C98.97,170.68 108.24,189.38 131.44,212.54 C146.64,227.71 157.62,236.16 202.82,267.43 C215.68,276.33 233.01,289.61 242.15,297.58 C266.95,319.18 277.87,341.64 274.94,365.01 C272.45,384.85 263.76,397.54 246.79,406.11 C236.91,411.09 225.44,413.35 210.00,413.34 C181.74,413.32 159.56,404.93 141.42,387.38 C119.24,365.94 106.98,333.20 105.11,290.50 L 104.50 276.50 L 101.24 276.19 L 97.99 275.87 L 98.24 347.69 L 98.50 419.50 L 101.22 419.81 C103.49,420.08 104.03,419.67 104.53,417.31 C106.50,408.02 111.42,404.27 122.95,403.30 C131.38,402.59 137.34,403.97 151.00,409.77 C166.96,416.54 182.57,421.71 192.00,423.34 C203.57,425.34 232.62,425.42 245.46,423.49 ZM 248.00 383.25 C254.63,376.57 257.27,369.23 257.27,357.50 C257.27,350.68 256.75,347.17 255.13,343.00 C252.81,337.04 244.24,323.91 242.24,323.25 C241.27,322.92 241.00,329.96 241.00,355.42 C241.00,379.19 241.31,388.00 242.14,388.00 C242.77,388.00 245.41,385.86 248.00,383.25 ZM 313.89 247.00 C350.85,243.67 370.13,229.73 377.22,201.23 C380.04,189.88 380.29,162.70 377.67,151.22 C372.58,128.86 362.20,113.87 345.17,104.30 C339.65,101.20 325.75,96.00 322.96,96.00 C322.36,96.00 322.00,115.74 322.00,149.02 L 322.00 202.04 L 301.25 201.77 L 280.50 201.50 L 279.87 183.50 C278.83,154.15 273.78,138.01 260.25,120.78 C255.47,114.70 244.41,105.00 242.25,105.00 C241.26,105.00 241.00,115.86 241.00,156.45 L 241.00 207.90 L 257.25 218.91 C266.19,224.97 278.67,233.98 285.00,238.94 C297.89,249.03 296.28,248.58 313.89,247.00 ZM 188.26 105.91 C185.86,98.78 184.21,97.93 179.19,101.26 C174.08,104.64 170.39,112.20 169.52,121.04 C168.24,134.22 173.82,150.13 184.26,163.02 L 189.50 169.50 L 189.76 140.32 C190.00,114.63 189.82,110.52 188.26,105.91 Z" fill="rgb(253,253,253)"/>
</g>
</svg>